<?xml version="1.0" encoding="utf-8"?>
<!-- Generator: Adobe Illustrator 19.2.1, SVG Export Plug-In . SVG Version: 6.00 Build 0)  -->
<svg version="1.1" id="Camada_1" xmlns="http://www.w3.org/2000/svg" xmlns:xlink="http://www.w3.org/1999/xlink" x="0px" y="0px"
	 viewBox="0 0 32 32" style="enable-background:new 0 0 32 32;" xml:space="preserve">
<style type="text/css">
	.st0{fill:#3176BD;}
	.st1{fill:#FFFFFF;}
</style>
<circle class="st0" cx="16" cy="16" r="16"/>
<path class="st1" d="M19.1,13.7c-0.3,0-0.5,0-0.8,0.1v-1.9c0.2,0.1,0.4,0.1,0.6,0.1c1.1,0,2-0.9,2-2c0-1.1-0.9-2-2-2
	c-1.1,0-2,0.9-2,2c0,0.2,0,0.4,0.1,0.5l-5.6,0.4C11,9.8,9.9,9,8.7,9C7.2,9,6,10.2,6,11.7c0,1.5,1.2,2.8,2.8,2.8c0,0,0,0,0,0L9.1,17
	c-1.1,0-1.9,0.9-1.9,2c0,1.1,0.9,2,2,2c1.1,0,2-0.9,2-2c0,0,0-0.1,0-0.1l2.7-0.2c0,0.1,0,0.2,0,0.2c0,2.9,2.3,5.2,5.2,5.2
	c2.9,0,5.2-2.3,5.2-5.2S22,13.7,19.1,13.7z M17,10.6c0.2,0.5,0.6,1,1.2,1.2v2c-1.4,0.3-2.5,1-3.3,2.1l-3.8-2.8
	c0.2-0.4,0.4-0.9,0.4-1.4c0-0.2,0-0.5-0.1-0.7L17,10.6z M11.2,18.7c-0.1-1-0.9-1.7-1.9-1.7l-0.4-2.5c0.9-0.1,1.6-0.5,2.1-1.2
	l3.8,2.8c-0.5,0.7-0.8,1.6-0.8,2.5L11.2,18.7z"/>
</svg>
